<mxfile host="app.diagrams.net" modified="2021-06-06T20:09:22.561Z" agent="5.0 (Macintosh; Intel Mac OS X 10_15_7) AppleWebKit/605.1.15 (KHTML, like Gecko) Version/14.1.1 Safari/605.1.15" etag="19BrK31b3VonYyw5kYxM" version="14.7.6" type="github">
  <diagram id="3rQBKOBRB7H7Ufo-duK_" name="Page-1">
    <mxGraphModel dx="1773" dy="645" grid="1" gridSize="10" guides="1" tooltips="1" connect="1" arrows="1" fold="1" page="1" pageScale="1" pageWidth="827" pageHeight="1169" math="0" shadow="0">
      <root>
        <mxCell id="0" />
        <mxCell id="1" parent="0" />
        <mxCell id="2L53VNDrGz6yw-l1Q3dg-25" style="edgeStyle=orthogonalEdgeStyle;rounded=0;orthogonalLoop=1;jettySize=auto;html=1;exitX=0.5;exitY=1;exitDx=0;exitDy=0;entryX=0.5;entryY=0;entryDx=0;entryDy=0;" edge="1" parent="1" source="2L53VNDrGz6yw-l1Q3dg-1" target="2L53VNDrGz6yw-l1Q3dg-8">
          <mxGeometry relative="1" as="geometry" />
        </mxCell>
        <mxCell id="2L53VNDrGz6yw-l1Q3dg-26" style="edgeStyle=orthogonalEdgeStyle;rounded=0;orthogonalLoop=1;jettySize=auto;html=1;exitX=0.75;exitY=1;exitDx=0;exitDy=0;" edge="1" parent="1" source="2L53VNDrGz6yw-l1Q3dg-1" target="2L53VNDrGz6yw-l1Q3dg-7">
          <mxGeometry relative="1" as="geometry" />
        </mxCell>
        <mxCell id="2L53VNDrGz6yw-l1Q3dg-27" style="edgeStyle=orthogonalEdgeStyle;rounded=0;orthogonalLoop=1;jettySize=auto;html=1;exitX=0.25;exitY=1;exitDx=0;exitDy=0;entryX=0.5;entryY=0;entryDx=0;entryDy=0;" edge="1" parent="1" source="2L53VNDrGz6yw-l1Q3dg-1" target="2L53VNDrGz6yw-l1Q3dg-9">
          <mxGeometry relative="1" as="geometry" />
        </mxCell>
        <mxCell id="2L53VNDrGz6yw-l1Q3dg-81" style="edgeStyle=orthogonalEdgeStyle;rounded=0;orthogonalLoop=1;jettySize=auto;html=1;exitX=1;exitY=0.5;exitDx=0;exitDy=0;entryX=0;entryY=0.5;entryDx=0;entryDy=0;" edge="1" parent="1" source="2L53VNDrGz6yw-l1Q3dg-1" target="2L53VNDrGz6yw-l1Q3dg-57">
          <mxGeometry relative="1" as="geometry" />
        </mxCell>
        <mxCell id="2L53VNDrGz6yw-l1Q3dg-1" value="&lt;font style=&quot;line-height: 140% ; font-size: 13px&quot;&gt;Fábrica&lt;/font&gt;" style="whiteSpace=wrap;html=1;align=center;" vertex="1" parent="1">
          <mxGeometry x="-20" y="40" width="100" height="40" as="geometry" />
        </mxCell>
        <mxCell id="2L53VNDrGz6yw-l1Q3dg-52" style="edgeStyle=orthogonalEdgeStyle;rounded=0;orthogonalLoop=1;jettySize=auto;html=1;exitX=0.5;exitY=1;exitDx=0;exitDy=0;entryX=0.5;entryY=0;entryDx=0;entryDy=0;" edge="1" parent="1" source="2L53VNDrGz6yw-l1Q3dg-2" target="2L53VNDrGz6yw-l1Q3dg-34">
          <mxGeometry relative="1" as="geometry" />
        </mxCell>
        <mxCell id="2L53VNDrGz6yw-l1Q3dg-53" style="edgeStyle=orthogonalEdgeStyle;rounded=0;orthogonalLoop=1;jettySize=auto;html=1;exitX=0.75;exitY=1;exitDx=0;exitDy=0;entryX=0;entryY=0;entryDx=0;entryDy=0;" edge="1" parent="1" source="2L53VNDrGz6yw-l1Q3dg-2" target="2L53VNDrGz6yw-l1Q3dg-35">
          <mxGeometry relative="1" as="geometry" />
        </mxCell>
        <mxCell id="2L53VNDrGz6yw-l1Q3dg-54" style="edgeStyle=orthogonalEdgeStyle;rounded=0;orthogonalLoop=1;jettySize=auto;html=1;exitX=0.25;exitY=1;exitDx=0;exitDy=0;entryX=1;entryY=0;entryDx=0;entryDy=0;" edge="1" parent="1" source="2L53VNDrGz6yw-l1Q3dg-2" target="2L53VNDrGz6yw-l1Q3dg-33">
          <mxGeometry relative="1" as="geometry" />
        </mxCell>
        <mxCell id="2L53VNDrGz6yw-l1Q3dg-84" style="edgeStyle=orthogonalEdgeStyle;rounded=0;orthogonalLoop=1;jettySize=auto;html=1;exitX=0;exitY=1;exitDx=0;exitDy=0;entryX=1;entryY=0;entryDx=0;entryDy=0;" edge="1" parent="1" source="2L53VNDrGz6yw-l1Q3dg-2" target="2L53VNDrGz6yw-l1Q3dg-60">
          <mxGeometry relative="1" as="geometry" />
        </mxCell>
        <mxCell id="2L53VNDrGz6yw-l1Q3dg-85" style="edgeStyle=orthogonalEdgeStyle;rounded=0;orthogonalLoop=1;jettySize=auto;html=1;exitX=1;exitY=0.5;exitDx=0;exitDy=0;entryX=0.6;entryY=0;entryDx=0;entryDy=0;entryPerimeter=0;" edge="1" parent="1" source="2L53VNDrGz6yw-l1Q3dg-2" target="2L53VNDrGz6yw-l1Q3dg-37">
          <mxGeometry relative="1" as="geometry" />
        </mxCell>
        <mxCell id="2L53VNDrGz6yw-l1Q3dg-2" value="&lt;font style=&quot;font-size: 13px&quot;&gt;Produto&lt;/font&gt;" style="whiteSpace=wrap;html=1;align=center;" vertex="1" parent="1">
          <mxGeometry x="620" y="40" width="100" height="40" as="geometry" />
        </mxCell>
        <mxCell id="2L53VNDrGz6yw-l1Q3dg-79" style="edgeStyle=orthogonalEdgeStyle;rounded=0;orthogonalLoop=1;jettySize=auto;html=1;exitX=0.25;exitY=1;exitDx=0;exitDy=0;" edge="1" parent="1" source="2L53VNDrGz6yw-l1Q3dg-3" target="2L53VNDrGz6yw-l1Q3dg-78">
          <mxGeometry relative="1" as="geometry" />
        </mxCell>
        <mxCell id="2L53VNDrGz6yw-l1Q3dg-80" style="edgeStyle=orthogonalEdgeStyle;rounded=0;orthogonalLoop=1;jettySize=auto;html=1;exitX=0.75;exitY=1;exitDx=0;exitDy=0;entryX=0.5;entryY=0;entryDx=0;entryDy=0;" edge="1" parent="1" source="2L53VNDrGz6yw-l1Q3dg-3" target="2L53VNDrGz6yw-l1Q3dg-77">
          <mxGeometry relative="1" as="geometry" />
        </mxCell>
        <mxCell id="2L53VNDrGz6yw-l1Q3dg-3" value="Categoria" style="whiteSpace=wrap;html=1;align=center;" vertex="1" parent="1">
          <mxGeometry x="280" y="120" width="100" height="40" as="geometry" />
        </mxCell>
        <mxCell id="2L53VNDrGz6yw-l1Q3dg-66" style="edgeStyle=orthogonalEdgeStyle;rounded=0;orthogonalLoop=1;jettySize=auto;html=1;exitX=0;exitY=0.5;exitDx=0;exitDy=0;entryX=0.5;entryY=0;entryDx=0;entryDy=0;" edge="1" parent="1" source="2L53VNDrGz6yw-l1Q3dg-4" target="2L53VNDrGz6yw-l1Q3dg-61">
          <mxGeometry relative="1" as="geometry" />
        </mxCell>
        <mxCell id="2L53VNDrGz6yw-l1Q3dg-67" style="edgeStyle=orthogonalEdgeStyle;rounded=0;orthogonalLoop=1;jettySize=auto;html=1;exitX=1;exitY=0.5;exitDx=0;exitDy=0;" edge="1" parent="1" source="2L53VNDrGz6yw-l1Q3dg-4">
          <mxGeometry relative="1" as="geometry">
            <mxPoint x="430" y="370" as="targetPoint" />
          </mxGeometry>
        </mxCell>
        <mxCell id="2L53VNDrGz6yw-l1Q3dg-69" style="edgeStyle=orthogonalEdgeStyle;rounded=0;orthogonalLoop=1;jettySize=auto;html=1;exitX=0.75;exitY=1;exitDx=0;exitDy=0;entryX=0.06;entryY=0.275;entryDx=0;entryDy=0;entryPerimeter=0;" edge="1" parent="1" source="2L53VNDrGz6yw-l1Q3dg-4" target="2L53VNDrGz6yw-l1Q3dg-64">
          <mxGeometry relative="1" as="geometry" />
        </mxCell>
        <mxCell id="2L53VNDrGz6yw-l1Q3dg-70" style="edgeStyle=orthogonalEdgeStyle;rounded=0;orthogonalLoop=1;jettySize=auto;html=1;exitX=0.5;exitY=1;exitDx=0;exitDy=0;" edge="1" parent="1" source="2L53VNDrGz6yw-l1Q3dg-4" target="2L53VNDrGz6yw-l1Q3dg-62">
          <mxGeometry relative="1" as="geometry" />
        </mxCell>
        <mxCell id="2L53VNDrGz6yw-l1Q3dg-71" style="edgeStyle=orthogonalEdgeStyle;rounded=0;orthogonalLoop=1;jettySize=auto;html=1;exitX=0.25;exitY=1;exitDx=0;exitDy=0;entryX=0.96;entryY=0.325;entryDx=0;entryDy=0;entryPerimeter=0;" edge="1" parent="1" source="2L53VNDrGz6yw-l1Q3dg-4" target="2L53VNDrGz6yw-l1Q3dg-63">
          <mxGeometry relative="1" as="geometry" />
        </mxCell>
        <mxCell id="2L53VNDrGz6yw-l1Q3dg-4" value="Distribuidora&amp;nbsp;" style="whiteSpace=wrap;html=1;align=center;" vertex="1" parent="1">
          <mxGeometry x="280" y="320" width="100" height="40" as="geometry" />
        </mxCell>
        <mxCell id="2L53VNDrGz6yw-l1Q3dg-74" style="edgeStyle=orthogonalEdgeStyle;rounded=0;orthogonalLoop=1;jettySize=auto;html=1;exitX=0.25;exitY=1;exitDx=0;exitDy=0;" edge="1" parent="1" source="2L53VNDrGz6yw-l1Q3dg-5" target="2L53VNDrGz6yw-l1Q3dg-72">
          <mxGeometry relative="1" as="geometry" />
        </mxCell>
        <mxCell id="2L53VNDrGz6yw-l1Q3dg-76" style="edgeStyle=orthogonalEdgeStyle;rounded=0;orthogonalLoop=1;jettySize=auto;html=1;exitX=0.75;exitY=1;exitDx=0;exitDy=0;" edge="1" parent="1" source="2L53VNDrGz6yw-l1Q3dg-5" target="2L53VNDrGz6yw-l1Q3dg-73">
          <mxGeometry relative="1" as="geometry" />
        </mxCell>
        <mxCell id="2L53VNDrGz6yw-l1Q3dg-5" value="Loja Online" style="whiteSpace=wrap;html=1;align=center;" vertex="1" parent="1">
          <mxGeometry x="590" y="320" width="100" height="40" as="geometry" />
        </mxCell>
        <mxCell id="2L53VNDrGz6yw-l1Q3dg-7" value="&lt;font style=&quot;font-size: 13px&quot;&gt;Endereço&lt;/font&gt;" style="ellipse;whiteSpace=wrap;html=1;align=center;" vertex="1" parent="1">
          <mxGeometry x="50" y="130" width="100" height="40" as="geometry" />
        </mxCell>
        <mxCell id="2L53VNDrGz6yw-l1Q3dg-8" value="&lt;font style=&quot;font-size: 13px&quot;&gt;Nome&lt;/font&gt;" style="ellipse;whiteSpace=wrap;html=1;align=center;" vertex="1" parent="1">
          <mxGeometry x="-80" y="130" width="100" height="40" as="geometry" />
        </mxCell>
        <mxCell id="2L53VNDrGz6yw-l1Q3dg-9" value="&lt;font size=&quot;2&quot;&gt;Área&lt;/font&gt;" style="ellipse;whiteSpace=wrap;html=1;align=center;" vertex="1" parent="1">
          <mxGeometry x="-10" y="180" width="100" height="40" as="geometry" />
        </mxCell>
        <mxCell id="2L53VNDrGz6yw-l1Q3dg-33" value="&lt;font style=&quot;font-size: 13px&quot;&gt;Peso&lt;/font&gt;" style="ellipse;whiteSpace=wrap;html=1;align=center;" vertex="1" parent="1">
          <mxGeometry x="550" y="170" width="100" height="40" as="geometry" />
        </mxCell>
        <mxCell id="2L53VNDrGz6yw-l1Q3dg-34" value="&lt;font style=&quot;font-size: 13px&quot;&gt;Dimensão Embalagem&lt;/font&gt;" style="ellipse;whiteSpace=wrap;html=1;align=center;" vertex="1" parent="1">
          <mxGeometry x="620" y="210" width="100" height="40" as="geometry" />
        </mxCell>
        <mxCell id="2L53VNDrGz6yw-l1Q3dg-35" value="&lt;font size=&quot;2&quot;&gt;Descrição&lt;br&gt;&lt;/font&gt;" style="ellipse;whiteSpace=wrap;html=1;align=center;" vertex="1" parent="1">
          <mxGeometry x="700" y="170" width="100" height="40" as="geometry" />
        </mxCell>
        <mxCell id="2L53VNDrGz6yw-l1Q3dg-37" value="&lt;font style=&quot;font-size: 13px&quot;&gt;Nome&lt;/font&gt;" style="ellipse;whiteSpace=wrap;html=1;align=center;" vertex="1" parent="1">
          <mxGeometry x="730" y="120" width="100" height="40" as="geometry" />
        </mxCell>
        <mxCell id="2L53VNDrGz6yw-l1Q3dg-83" style="edgeStyle=orthogonalEdgeStyle;rounded=0;orthogonalLoop=1;jettySize=auto;html=1;exitX=1;exitY=0.5;exitDx=0;exitDy=0;" edge="1" parent="1" source="2L53VNDrGz6yw-l1Q3dg-57" target="2L53VNDrGz6yw-l1Q3dg-2">
          <mxGeometry relative="1" as="geometry" />
        </mxCell>
        <mxCell id="2L53VNDrGz6yw-l1Q3dg-57" value="Relationship" style="shape=rhombus;perimeter=rhombusPerimeter;whiteSpace=wrap;html=1;align=center;" vertex="1" parent="1">
          <mxGeometry x="320" y="20" width="120" height="60" as="geometry" />
        </mxCell>
        <mxCell id="2L53VNDrGz6yw-l1Q3dg-60" value="&lt;font style=&quot;font-size: 13px&quot;&gt;Código&lt;/font&gt;" style="ellipse;shape=doubleEllipse;margin=3;whiteSpace=wrap;html=1;align=center;" vertex="1" parent="1">
          <mxGeometry x="520" y="110" width="100" height="40" as="geometry" />
        </mxCell>
        <mxCell id="2L53VNDrGz6yw-l1Q3dg-61" value="&lt;font style=&quot;font-size: 13px&quot;&gt;Email&lt;br&gt;&lt;/font&gt;" style="ellipse;whiteSpace=wrap;html=1;align=center;" vertex="1" parent="1">
          <mxGeometry x="190" y="370" width="100" height="40" as="geometry" />
        </mxCell>
        <mxCell id="2L53VNDrGz6yw-l1Q3dg-62" value="&lt;font style=&quot;font-size: 13px&quot;&gt;Telefone&lt;br&gt;&lt;/font&gt;" style="ellipse;whiteSpace=wrap;html=1;align=center;" vertex="1" parent="1">
          <mxGeometry x="280" y="460" width="100" height="40" as="geometry" />
        </mxCell>
        <mxCell id="2L53VNDrGz6yw-l1Q3dg-63" value="&lt;font style=&quot;font-size: 13px&quot;&gt;Endereço&lt;/font&gt;" style="ellipse;whiteSpace=wrap;html=1;align=center;" vertex="1" parent="1">
          <mxGeometry x="200" y="410" width="100" height="40" as="geometry" />
        </mxCell>
        <mxCell id="2L53VNDrGz6yw-l1Q3dg-64" value="&lt;font style=&quot;font-size: 13px&quot;&gt;Nome&lt;br&gt;&lt;/font&gt;" style="ellipse;whiteSpace=wrap;html=1;align=center;" vertex="1" parent="1">
          <mxGeometry x="370" y="410" width="100" height="40" as="geometry" />
        </mxCell>
        <mxCell id="2L53VNDrGz6yw-l1Q3dg-65" value="&lt;font style=&quot;font-size: 13px&quot;&gt;CNPJ&lt;/font&gt;" style="ellipse;whiteSpace=wrap;html=1;align=center;" vertex="1" parent="1">
          <mxGeometry x="380" y="370" width="100" height="40" as="geometry" />
        </mxCell>
        <mxCell id="2L53VNDrGz6yw-l1Q3dg-72" value="&lt;font style=&quot;font-size: 13px&quot;&gt;Nome&lt;/font&gt;" style="ellipse;whiteSpace=wrap;html=1;align=center;" vertex="1" parent="1">
          <mxGeometry x="520" y="390" width="100" height="40" as="geometry" />
        </mxCell>
        <mxCell id="2L53VNDrGz6yw-l1Q3dg-73" value="&lt;font style=&quot;font-size: 13px&quot;&gt;URL&lt;/font&gt;" style="ellipse;whiteSpace=wrap;html=1;align=center;" vertex="1" parent="1">
          <mxGeometry x="650" y="390" width="100" height="40" as="geometry" />
        </mxCell>
        <mxCell id="2L53VNDrGz6yw-l1Q3dg-77" value="&lt;font style=&quot;font-size: 13px&quot;&gt;Descrição&lt;/font&gt;" style="ellipse;whiteSpace=wrap;html=1;align=center;" vertex="1" parent="1">
          <mxGeometry x="340" y="200" width="100" height="40" as="geometry" />
        </mxCell>
        <mxCell id="2L53VNDrGz6yw-l1Q3dg-78" value="&lt;font style=&quot;font-size: 13px&quot;&gt;Código&lt;/font&gt;" style="ellipse;whiteSpace=wrap;html=1;align=center;" vertex="1" parent="1">
          <mxGeometry x="220" y="200" width="100" height="40" as="geometry" />
        </mxCell>
      </root>
    </mxGraphModel>
  </diagram>
</mxfile>
